<svg xmlns="http://www.w3.org/2000/svg" viewBox="0 0 229.47 92.99"><defs><style>.a{fill:#fff;}.b{fill:#9b9b9b;}.c{fill:#1e1e1e;}</style></defs><title>ears_white_1</title><path class="a" d="M62.85,30.18C31.72,9.42,18.92,7.53,14,12c-1.59,1.44-1.77,4.43-1,25a161.26,161.26,0,0,0,2.19,21C33.05,53,50.89,45,62.85,30.18Z" transform="translate(-12.53 -10.01)"/><path class="b" d="M116,70C94.06,52.29,76.66,39.38,62.85,30.18,50.89,45,33.05,53,15.18,58A169.8,169.8,0,0,0,29.67,103Z" transform="translate(-12.53 -10.01)"/><path class="c" d="M32,97C24.18,82.86,17.25,63.87,15.71,37.18c-1.18-20.37-.83-22.77.67-23.66,6.09-3.65,24.41,5.69,76.88,60.32" transform="translate(-12.53 -10.01)"/><path class="a" d="M44.14,86.79a93.9,93.9,0,0,1-2.31-31.3c.94-10,1.22-11.16,1.81-11.52C46,42.5,51.81,48,66.57,77.38" transform="translate(-12.53 -10.01)"/><path class="a" d="M191.68,30.18C222.82,9.42,235.61,7.53,240.56,12c1.6,1.44,1.77,4.43,1,25a161.26,161.26,0,0,1-2.19,21C221.48,53,203.64,45,191.68,30.18Z" transform="translate(-12.53 -10.01)"/><path class="b" d="M138.53,70c21.94-17.71,39.35-30.62,53.15-39.82C203.64,45,221.48,53,239.35,58A169.82,169.82,0,0,1,224.87,103Z" transform="translate(-12.53 -10.01)"/><path class="c" d="M222.53,97c7.83-14.14,14.75-33.13,16.29-59.82,1.18-20.37.83-22.77-.66-23.66-6.1-3.65-24.41,5.69-76.88,60.32" transform="translate(-12.53 -10.01)"/><path class="a" d="M210.4,86.79a94.17,94.17,0,0,0,2.31-31.3c-1-10-1.23-11.16-1.81-11.52-2.38-1.47-8.18,4-22.94,33.41" transform="translate(-12.53 -10.01)"/></svg>